<svg width="11" height="10" viewBox="0 0 11 10" fill="none" xmlns="http://www.w3.org/2000/svg">
<path d="M7.11214 0.384928C7.11214 0.172526 7.3221 0 7.58171 0C7.84131 0 8.05127 0.172526 8.05127 0.384928V2.07113C8.05127 2.28353 7.84131 2.45605 7.58171 2.45605C7.3221 2.45605 7.11214 2.28353 7.11214 2.07113V0.384928ZM5.85075 8.59863C5.78565 8.59863 5.78565 7.77669 5.85075 7.77669H7.13574C7.20085 7.77669 7.20085 8.59863 7.13574 8.59863H5.85075ZM1.76058 5.61035C1.69548 5.61035 1.69548 4.78841 1.76058 4.78841H3.04557C3.11068 4.78841 3.11068 5.61035 3.04557 5.61035H1.76058ZM3.80566 5.61035C3.74056 5.61035 3.74056 4.78841 3.80566 4.78841H5.09066C5.15576 4.78841 5.15576 5.61035 5.09066 5.61035H3.80566ZM5.85075 5.61035C5.78565 5.61035 5.78565 4.78841 5.85075 4.78841H7.13574C7.20085 4.78841 7.20085 5.61035 7.13574 5.61035H5.85075ZM7.89665 4.78841H9.17839C9.24349 4.78841 9.24349 5.61035 9.17839 5.61035H7.89665C7.83154 5.61035 7.83154 4.78841 7.89665 4.78841ZM1.76058 7.10449C1.69548 7.10449 1.69548 6.28255 1.76058 6.28255H3.04557C3.11068 6.28255 3.11068 7.10449 3.04557 7.10449H1.76058ZM3.80729 7.10449C3.74219 7.10449 3.74219 6.28255 3.80729 6.28255H5.09066C5.15576 6.28255 5.15576 7.10449 5.09066 7.10449H3.80729ZM5.85238 7.10449C5.78727 7.10449 5.78727 6.28255 5.85238 6.28255H7.13574C7.20085 6.28255 7.20085 7.10449 7.13574 7.10449H5.85238ZM7.89827 7.10449C7.83317 7.10449 7.83317 6.28255 7.89827 6.28255H9.17839C9.24349 6.28255 9.24349 7.10449 9.17839 7.10449H7.89827ZM1.76221 8.59863C1.6971 8.59863 1.6971 7.77669 1.76221 7.77669H3.04557C3.11068 7.77669 3.11068 8.59863 3.04557 8.59863H1.76221ZM3.80729 8.59863C3.74219 8.59863 3.74219 7.77669 3.80729 7.77669H5.09066C5.15576 7.77669 5.15576 8.59863 5.09066 8.59863H3.80729ZM2.88037 0.384928C2.88037 0.172526 3.09033 0 3.34994 0C3.60954 0 3.8195 0.172526 3.8195 0.384928V2.07113C3.8195 2.28353 3.60954 2.45605 3.34994 2.45605C3.09033 2.45605 2.88037 2.28353 2.88037 2.07113V0.384928ZM0.991536 3.5376H9.94906V1.74723C9.94837 1.68415 9.92329 1.62378 9.87907 1.57878C9.85698 1.55659 9.83073 1.53898 9.80182 1.52697C9.77291 1.51496 9.74192 1.50878 9.71061 1.50879H8.85287C8.7838 1.50879 8.71756 1.48135 8.66872 1.43251C8.61988 1.38368 8.59245 1.31744 8.59245 1.24837C8.59245 1.17931 8.61988 1.11307 8.66872 1.06423C8.71756 1.01539 8.7838 0.987956 8.85287 0.987956H9.71143C9.9126 0.988599 10.1054 1.0688 10.2476 1.21105C10.3899 1.35331 10.4701 1.54606 10.4707 1.74723V9.24154C10.4701 9.44271 10.3899 9.63546 10.2476 9.77771C10.1054 9.91997 9.9126 10.0002 9.71143 10.0008H1.22998C1.02867 10.0002 0.835791 9.91985 0.693515 9.77743C0.551239 9.635 0.471132 9.44204 0.470703 9.24072V1.74723C0.471347 1.54606 0.551549 1.35331 0.693801 1.21105C0.836054 1.0688 1.02881 0.988599 1.22998 0.987956H2.14714C2.18133 0.987956 2.2152 0.994692 2.24679 1.00778C2.27839 1.02087 2.3071 1.04005 2.33128 1.06423C2.35546 1.08841 2.37464 1.11712 2.38773 1.14872C2.40082 1.18031 2.40755 1.21417 2.40755 1.24837C2.40755 1.28257 2.40082 1.31643 2.38773 1.34803C2.37464 1.37962 2.35546 1.40833 2.33128 1.43251C2.3071 1.4567 2.27839 1.47588 2.24679 1.48897C2.2152 1.50205 2.18133 1.50879 2.14714 1.50879H1.22998C1.16689 1.50948 1.10652 1.53456 1.06152 1.57878C1.03934 1.60086 1.02173 1.62711 1.00972 1.65602C0.997711 1.68493 0.991531 1.71593 0.991536 1.74723V3.5376ZM9.94987 4.05924H0.991536V9.24072C0.992223 9.30381 1.0173 9.36418 1.06152 9.40918C1.08361 9.43137 1.10986 9.44897 1.13877 9.46098C1.16768 9.47299 1.19868 9.47917 1.22998 9.47917H9.71143C9.77451 9.47848 9.83488 9.4534 9.87988 9.40918C9.90207 9.38709 9.91967 9.36084 9.93168 9.33193C9.9437 9.30302 9.94988 9.27203 9.94987 9.24072V4.05924ZM4.57471 1.50879C4.50564 1.50879 4.4394 1.48135 4.39056 1.43251C4.34173 1.38368 4.31429 1.31744 4.31429 1.24837C4.31429 1.17931 4.34173 1.11307 4.39056 1.06423C4.4394 1.01539 4.50564 0.987956 4.57471 0.987956H6.32357C6.35777 0.987956 6.39163 0.994692 6.42322 1.00778C6.45482 1.02087 6.48353 1.04005 6.50771 1.06423C6.53189 1.08841 6.55107 1.11712 6.56416 1.14872C6.57725 1.18031 6.58398 1.21417 6.58398 1.24837C6.58398 1.28257 6.57725 1.31643 6.56416 1.34803C6.55107 1.37962 6.53189 1.40833 6.50771 1.43251C6.48353 1.4567 6.45482 1.47588 6.42322 1.48897C6.39163 1.50205 6.35777 1.50879 6.32357 1.50879H4.57471Z" fill="#A8A8A8"/>
</svg>
