<svg width="7" height="10" viewBox="0 0 7 10" fill="none" xmlns="http://www.w3.org/2000/svg">
<path d="M2.79412 10V8.82353H1.61765V7.94118H2.79412V6.44118C1.9902 6.33333 1.32353 5.97203 0.794118 5.35726C0.264706 4.7425 0 4.03027 0 3.22059C0 2.32434 0.316176 1.56351 0.948529 0.938103C1.58088 0.312701 2.34314 0 3.23529 0C4.12745 0 4.88971 0.312701 5.52206 0.938103C6.15441 1.56351 6.47059 2.32434 6.47059 3.22059C6.47059 4.03027 6.20588 4.7425 5.67647 5.35726C5.14706 5.97203 4.48039 6.33333 3.67647 6.44118V7.94118H4.85294V8.82353H3.67647V10H2.79412ZM3.23232 5.58824C3.88136 5.58824 4.43627 5.35883 4.89706 4.90003C5.35784 4.44123 5.58824 3.8873 5.58824 3.23826C5.58824 2.58923 5.35883 2.03431 4.90003 1.57353C4.44123 1.11275 3.8873 0.882353 3.23826 0.882353C2.58923 0.882353 2.03431 1.11176 1.57353 1.57056C1.11275 2.02936 0.882353 2.58328 0.882353 3.23232C0.882353 3.88136 1.11176 4.43627 1.57056 4.89706C2.02936 5.35784 2.58328 5.58824 3.23232 5.58824Z" fill="#A8A8A8"/>
</svg>
