<svg width="14" height="14" viewBox="0 0 14 14" fill="none" xmlns="http://www.w3.org/2000/svg">
<g clip-path="url(#clip0_1_2409)">
<path d="M2.41354 13.9074C2.24389 13.9074 2.1062 13.7697 2.1062 13.6V8.54654C2.1062 8.37689 2.24389 8.2392 2.41354 8.2392C2.5832 8.2392 2.72089 8.37689 2.72089 8.54654V13.6C2.72089 13.7697 2.58335 13.9074 2.41354 13.9074Z" fill="white"/>
<path d="M11.5708 9.19841C11.4011 9.19841 11.2634 9.06072 11.2634 8.89106V0.384248C11.2634 0.214594 11.4011 0.0769043 11.5708 0.0769043C11.7404 0.0769043 11.8781 0.214594 11.8781 0.384248V8.89106C11.8781 9.06087 11.7404 9.19841 11.5708 9.19841Z" fill="white"/>
<path d="M6.99216 13.9074C6.8225 13.9074 6.68481 13.7697 6.68481 13.6V4.36771C6.68481 4.19805 6.8225 4.06036 6.99216 4.06036C7.16181 4.06036 7.2995 4.19805 7.2995 4.36771V13.6C7.2995 13.7697 7.16181 13.9074 6.99216 13.9074Z" fill="white"/>
<path d="M6.99213 4.67505C6.15246 4.67505 5.46924 3.99198 5.46924 3.15216C5.46924 2.31234 6.15231 1.62927 6.99213 1.62927C7.83194 1.62927 8.51501 2.31234 8.51501 3.15216C8.51501 3.99198 7.83194 4.67505 6.99213 4.67505ZM6.99213 2.24411C6.49131 2.24411 6.08393 2.6515 6.08393 3.15231C6.08393 3.65313 6.49131 4.06051 6.99213 4.06051C7.49294 4.06051 7.90033 3.65313 7.90033 3.15231C7.90033 2.6515 7.49294 2.24411 6.99213 2.24411Z" fill="white"/>
<path d="M2.41351 8.85388C1.57385 8.85388 0.890625 8.17081 0.890625 7.33099C0.890625 6.49133 1.5737 5.80811 2.41351 5.80811C3.25333 5.80811 3.9364 6.49118 3.9364 7.33099C3.9364 8.17081 3.25318 8.85388 2.41351 8.85388ZM2.41351 6.42279C1.9127 6.42279 1.50531 6.83018 1.50531 7.33099C1.50531 7.83181 1.9127 8.23919 2.41351 8.23919C2.91433 8.23919 3.32171 7.83181 3.32171 7.33099C3.32171 6.83018 2.91433 6.42279 2.41351 6.42279Z" fill="white"/>
<path d="M11.5708 11.6295C10.7312 11.6295 10.0481 10.9464 10.0481 10.1066C10.0481 9.26693 10.7312 8.58386 11.5708 8.58386C12.4106 8.58386 13.0937 9.26693 13.0937 10.1066C13.0937 10.9463 12.4106 11.6295 11.5708 11.6295ZM11.5708 9.1984C11.07 9.1984 10.6628 9.60563 10.6628 10.1064C10.6628 10.6073 11.07 11.0146 11.5708 11.0146C12.0716 11.0146 12.479 10.6073 12.479 10.1064C12.479 9.60563 12.0716 9.1984 11.5708 9.1984Z" fill="white"/>
<path d="M2.41354 6.42278C2.24389 6.42278 2.1062 6.28509 2.1062 6.11544V0.384248C2.1062 0.214594 2.24389 0.0769043 2.41354 0.0769043C2.5832 0.0769043 2.72089 0.214594 2.72089 0.384248V6.11544C2.72089 6.28525 2.58335 6.42278 2.41354 6.42278Z" fill="white"/>
<path d="M6.99216 2.24414C6.8225 2.24414 6.68481 2.10645 6.68481 1.93679V0.384248C6.68481 0.214594 6.8225 0.0769043 6.99216 0.0769043C7.16181 0.0769043 7.2995 0.214594 7.2995 0.384248V1.93679C7.2995 2.10645 7.16181 2.24414 6.99216 2.24414Z" fill="white"/>
<path d="M11.5708 13.9074C11.4011 13.9074 11.2634 13.7697 11.2634 13.6001V11.3222C11.2634 11.1525 11.4011 11.0148 11.5708 11.0148C11.7404 11.0148 11.8781 11.1525 11.8781 11.3222V13.6001C11.8781 13.7697 11.7404 13.9074 11.5708 13.9074Z" fill="white"/>
</g>
<defs>
<clipPath id="clip0_1_2409">
<rect width="14" height="14" fill="white"/>
</clipPath>
</defs>
</svg>
