<svg width="15" height="18" viewBox="0 0 15 18" fill="none" xmlns="http://www.w3.org/2000/svg">
<path d="M7.00463 8.53125C7.42625 8.53125 7.78654 8.38112 8.0855 8.08087C8.38446 7.78062 8.53394 7.41969 8.53394 6.99805C8.53394 6.57643 8.38381 6.21615 8.08355 5.91719C7.78331 5.61823 7.42237 5.46875 7.00074 5.46875C6.57912 5.46875 6.21883 5.61888 5.91987 5.91913C5.62091 6.21938 5.47144 6.58031 5.47144 7.00195C5.47144 7.42357 5.62156 7.78385 5.92182 8.08281C6.22206 8.38177 6.583 8.53125 7.00463 8.53125ZM7.00269 15.7719C8.94227 14.0073 10.3751 12.4068 11.3011 10.9703C12.2272 9.53385 12.6902 8.26875 12.6902 7.175C12.6902 5.45723 12.1412 4.0507 11.0432 2.95542C9.94518 1.86014 8.59835 1.3125 7.00269 1.3125C5.40702 1.3125 4.06019 1.86014 2.9622 2.95542C1.86419 4.0507 1.31519 5.45723 1.31519 7.175C1.31519 8.26875 1.78914 9.53385 2.73706 10.9703C3.68498 12.4068 5.10685 14.0073 7.00269 15.7719ZM7.00269 17.5C4.65477 15.5021 2.90112 13.6464 1.74175 11.9328C0.582373 10.2193 0.00268555 8.63333 0.00268555 7.175C0.00268555 4.9875 0.706331 3.24479 2.11362 1.94687C3.52091 0.648958 5.1506 0 7.00269 0C8.85477 0 10.4845 0.648958 11.8917 1.94687C13.299 3.24479 14.0027 4.9875 14.0027 7.175C14.0027 8.63333 13.423 10.2193 12.2636 11.9328C11.1042 13.6464 9.3506 15.5021 7.00269 17.5Z" fill="#A8A8A8"/>
</svg>
