<svg width="14" height="14" viewBox="0 0 14 14" fill="none" xmlns="http://www.w3.org/2000/svg">
<path d="M14 12.2436L9.86927 8.39434C10.6276 7.5118 11.0833 6.38825 11.0833 5.16627C11.0833 2.31158 8.60052 0 5.54167 0C2.47917 0 0 2.31498 0 5.16627C0 8.01756 2.48281 10.3325 5.54167 10.3325C6.86146 10.3325 8.07187 9.90145 9.02344 9.18524L13.1505 13.0345L14 12.2436ZM2.03437 8.43847C1.0974 7.56611 0.583333 6.40523 0.583333 5.16967C0.583333 3.93411 1.10104 2.77322 2.03437 1.90086C2.96771 1.0285 4.21823 0.543103 5.54167 0.543103C6.8651 0.543103 8.11198 1.02511 9.04896 1.89747C9.98594 2.76983 10.5 3.93071 10.5 5.16627C10.5 6.40183 9.98229 7.56272 9.04896 8.43508C8.11198 9.30744 6.8651 9.78944 5.54167 9.78944C4.21823 9.79283 2.97135 9.31083 2.03437 8.43847Z" fill="#A8A8A8"/>
</svg>
