<svg width="14" height="14" viewBox="0 0 14 14" fill="none" xmlns="http://www.w3.org/2000/svg">
<path d="M7 0C5.14348 0 3.36301 0.737498 2.05025 2.05025C0.737498 3.36301 0 5.14348 0 7C0 8.85651 0.737498 10.637 2.05025 11.9497C3.36301 13.2625 5.14348 14 7 14C8.85651 14 10.637 13.2625 11.9497 11.9497C13.2625 10.637 14 8.85651 14 7C14 5.14348 13.2625 3.36301 11.9497 2.05025C10.637 0.737498 8.85651 0 7 0Z" fill="#29B6F6"/>
<path d="M10.4826 3.85L9.1715 10.5441C9.1715 10.5441 9.11515 10.85 8.73575 10.85C8.53415 10.85 8.4302 10.7541 8.4302 10.7541L5.5903 8.39755L4.2008 7.6972L2.41755 7.22295C2.41755 7.22295 2.1001 7.13125 2.1001 6.86875C2.1001 6.65 2.42665 6.5457 2.42665 6.5457L9.88725 3.5819C9.8869 3.58155 10.1151 3.49965 10.2813 3.5C10.3835 3.5 10.5001 3.54375 10.5001 3.675C10.5001 3.7625 10.4826 3.85 10.4826 3.85Z" fill="white"/>
<path d="M6.64999 9.27663L5.45089 10.4575C5.45089 10.4575 5.39874 10.4978 5.32909 10.4995C5.30494 10.5002 5.27904 10.4964 5.25244 10.4845L5.58984 8.39673L6.64999 9.27663Z" fill="#B0BEC5"/>
<path d="M9.06414 4.96871C9.00499 4.89171 8.89579 4.87771 8.81879 4.93616L4.2002 7.70011C4.2002 7.70011 4.9373 9.76231 5.04965 10.1193C5.16235 10.4767 5.25265 10.4851 5.25265 10.4851L5.59005 8.39731L9.03124 5.21371C9.10824 5.15526 9.12259 5.04571 9.06414 4.96871Z" fill="#CFD8DC"/>
</svg>
