<svg width="18" height="14" viewBox="0 0 18 14" fill="none" xmlns="http://www.w3.org/2000/svg">
<path d="M15.462 3.48776C15.4718 3.63909 15.4718 3.79166 15.4718 3.94422C15.4718 8.61469 11.9173 14 5.4173 14V13.9975C3.49686 14.0002 1.61623 13.4501 0 12.4128C1.86819 12.6373 3.74906 12.1107 5.22905 10.9487C4.49164 10.9346 3.77705 10.6905 3.18519 10.2504C2.59333 9.81028 2.15378 9.19625 1.92798 8.49411C2.45827 8.59624 3.00455 8.57532 3.52377 8.4326C2.72418 8.27104 2.00509 7.8379 1.48842 7.20665C0.971751 6.57539 0.689314 5.78486 0.689005 4.96912V4.92482C1.18115 5.19796 1.73112 5.3493 2.2934 5.36775C1.54482 4.8679 1.01488 4.10155 0.811439 3.22472C0.608002 2.34788 0.746371 1.42648 1.19838 0.648072C2.08571 1.73972 3.19277 2.6325 4.44763 3.26841C5.70249 3.90432 7.07709 4.26914 8.48214 4.33917C8.3054 3.58132 8.3836 2.78633 8.7046 2.07744C9.02561 1.36854 9.57149 0.785335 10.2576 0.41822C10.9438 0.0511051 11.7319 -0.0794141 12.4998 0.0468944C13.2676 0.173203 13.9724 0.549284 14.5048 1.11684C15.2962 0.960721 16.0551 0.670704 16.749 0.259277C16.4852 1.07713 15.9334 1.77141 15.1962 2.2131C15.8966 2.13057 16.5806 1.94309 17.2251 1.65697C16.751 2.36726 16.1539 2.98724 15.462 3.48776Z" fill="#1D9BF0"/>
</svg>
