<svg width="15" height="14" viewBox="0 0 15 14" fill="none" xmlns="http://www.w3.org/2000/svg">
<path d="M11.1192 13.9926L3.34555 14C1.63534 14.0016 0.234916 12.6038 0.232972 10.8936L0.225587 3.11997C0.224032 1.40976 1.62174 0.00932973 3.33195 0.00738631L11.1056 1.2958e-06C12.8158 -0.00155344 14.2163 1.39615 14.2182 3.10636L14.2256 10.88C14.2275 12.5906 12.8294 13.9911 11.1192 13.9926Z" fill="url(#paint0_radial_178_223)"/>
<path d="M11.1192 13.9926L3.34555 14C1.63534 14.0016 0.234916 12.6038 0.232972 10.8936L0.225587 3.11997C0.224032 1.40976 1.62174 0.00932973 3.33195 0.00738631L11.1056 1.2958e-06C12.8158 -0.00155344 14.2163 1.39615 14.2182 3.10636L14.2256 10.88C14.2275 12.5906 12.8294 13.9911 11.1192 13.9926Z" fill="url(#paint1_radial_178_223)"/>
<path d="M7.22567 9.72087C5.72574 9.72087 4.50488 8.5004 4.50488 7.00008C4.50488 5.49976 5.72574 4.2793 7.22567 4.2793C8.7256 4.2793 9.94645 5.49976 9.94645 7.00008C9.94645 8.5004 8.7256 9.72087 7.22567 9.72087ZM7.22567 5.05666C6.15407 5.05666 5.28225 5.92848 5.28225 7.00008C5.28225 8.07168 6.15407 8.9435 7.22567 8.9435C8.29727 8.9435 9.16909 8.07168 9.16909 7.00008C9.16909 5.92848 8.29727 5.05666 7.22567 5.05666Z" fill="white"/>
<path d="M10.1406 4.668C10.4626 4.668 10.7237 4.40697 10.7237 4.08498C10.7237 3.76298 10.4626 3.50195 10.1406 3.50195C9.81865 3.50195 9.55762 3.76298 9.55762 4.08498C9.55762 4.40697 9.81865 4.668 10.1406 4.668Z" fill="white"/>
<path d="M9.55784 12.053H4.89364C3.39371 12.053 2.17285 10.8326 2.17285 9.33226V4.66805C2.17285 3.16773 3.39371 1.94727 4.89364 1.94727H9.55784C11.0578 1.94727 12.2786 3.16773 12.2786 4.66805V9.33226C12.2786 10.8326 11.0578 12.053 9.55784 12.053ZM4.89364 2.72463C3.82204 2.72463 2.95022 3.59645 2.95022 4.66805V9.33226C2.95022 10.4039 3.82204 11.2757 4.89364 11.2757H9.55784C10.6294 11.2757 11.5013 10.4039 11.5013 9.33226V4.66805C11.5013 3.59645 10.6294 2.72463 9.55784 2.72463H4.89364Z" fill="white"/>
<defs>
<radialGradient id="paint0_radial_178_223" cx="0" cy="0" r="1" gradientUnits="userSpaceOnUse" gradientTransform="translate(5.43006 14.0101) scale(17.4515 17.4515)">
<stop stop-color="#FFDD55"/>
<stop offset="0.328" stop-color="#FF543F"/>
<stop offset="0.348" stop-color="#FC5245"/>
<stop offset="0.504" stop-color="#E64771"/>
<stop offset="0.643" stop-color="#D53E91"/>
<stop offset="0.761" stop-color="#CC39A4"/>
<stop offset="0.841" stop-color="#C837AB"/>
</radialGradient>
<radialGradient id="paint1_radial_178_223" cx="0" cy="0" r="1" gradientUnits="userSpaceOnUse" gradientTransform="translate(2.4784 -0.174789) scale(11.5878 7.72097)">
<stop stop-color="#4168C9"/>
<stop offset="0.999" stop-color="#4168C9" stop-opacity="0"/>
</radialGradient>
</defs>
</svg>
