<svg width="14" height="14" viewBox="0 0 14 14" fill="none" xmlns="http://www.w3.org/2000/svg">
<path d="M10.8936 13.9926L3.11997 14C1.40976 14.0016 0.00932973 12.6038 0.00738631 10.8936L1.2958e-06 3.11997C-0.00155344 1.40976 1.39615 0.00932973 3.10636 0.00738631L10.88 1.2958e-06C12.5902 -0.00155344 13.9907 1.39615 13.9926 3.10636L14 10.88C14.0019 12.5906 12.6038 13.9911 10.8936 13.9926Z" fill="url(#paint0_radial_178_230)"/>
<path d="M10.8936 13.9926L3.11997 14C1.40976 14.0016 0.00932973 12.6038 0.00738631 10.8936L1.2958e-06 3.11997C-0.00155344 1.40976 1.39615 0.00932973 3.10636 0.00738631L10.88 1.2958e-06C12.5902 -0.00155344 13.9907 1.39615 13.9926 3.10636L14 10.88C14.0019 12.5906 12.6038 13.9911 10.8936 13.9926Z" fill="url(#paint1_radial_178_230)"/>
<path d="M7.00008 9.72087C5.50015 9.72087 4.2793 8.5004 4.2793 7.00008C4.2793 5.49976 5.50015 4.2793 7.00008 4.2793C8.50001 4.2793 9.72087 5.49976 9.72087 7.00008C9.72087 8.5004 8.50001 9.72087 7.00008 9.72087ZM7.00008 5.05666C5.92848 5.05666 5.05666 5.92848 5.05666 7.00008C5.05666 8.07168 5.92848 8.9435 7.00008 8.9435C8.07168 8.9435 8.9435 8.07168 8.9435 7.00008C8.9435 5.92848 8.07168 5.05666 7.00008 5.05666Z" fill="white"/>
<path d="M9.91506 4.668C10.2371 4.668 10.4981 4.40697 10.4981 4.08498C10.4981 3.76298 10.2371 3.50195 9.91506 3.50195C9.59306 3.50195 9.33203 3.76298 9.33203 4.08498C9.33203 4.40697 9.59306 4.668 9.91506 4.668Z" fill="white"/>
<path d="M9.33226 12.053H4.66805C3.16812 12.053 1.94727 10.8326 1.94727 9.33226V4.66805C1.94727 3.16773 3.16812 1.94727 4.66805 1.94727H9.33226C10.8322 1.94727 12.053 3.16773 12.053 4.66805V9.33226C12.053 10.8326 10.8322 12.053 9.33226 12.053ZM4.66805 2.72463C3.59645 2.72463 2.72463 3.59645 2.72463 4.66805V9.33226C2.72463 10.4039 3.59645 11.2757 4.66805 11.2757H9.33226C10.4039 11.2757 11.2757 10.4039 11.2757 9.33226V4.66805C11.2757 3.59645 10.4039 2.72463 9.33226 2.72463H4.66805Z" fill="white"/>
<defs>
<radialGradient id="paint0_radial_178_230" cx="0" cy="0" r="1" gradientUnits="userSpaceOnUse" gradientTransform="translate(5.20448 14.0101) scale(17.4515 17.4515)">
<stop stop-color="#FFDD55"/>
<stop offset="0.328" stop-color="#FF543F"/>
<stop offset="0.348" stop-color="#FC5245"/>
<stop offset="0.504" stop-color="#E64771"/>
<stop offset="0.643" stop-color="#D53E91"/>
<stop offset="0.761" stop-color="#CC39A4"/>
<stop offset="0.841" stop-color="#C837AB"/>
</radialGradient>
<radialGradient id="paint1_radial_178_230" cx="0" cy="0" r="1" gradientUnits="userSpaceOnUse" gradientTransform="translate(2.25281 -0.174789) scale(11.5878 7.72097)">
<stop stop-color="#4168C9"/>
<stop offset="0.999" stop-color="#4168C9" stop-opacity="0"/>
</radialGradient>
</defs>
</svg>
