<svg width="35" height="29" viewBox="0 0 35 29" fill="none" xmlns="http://www.w3.org/2000/svg">
<path d="M31.4175 7.08683C31.4375 7.39433 31.4375 7.70433 31.4375 8.01433C31.4375 17.5043 24.215 28.4468 11.0075 28.4468V28.4418C7.10533 28.4473 3.28405 27.3294 0 25.2218C3.79601 25.6779 7.61778 24.6078 10.625 22.2468C9.12664 22.2182 7.67466 21.7221 6.47205 20.8279C5.26944 19.9337 4.3763 18.686 3.9175 17.2593C4.995 17.4668 6.105 17.4243 7.16 17.1343C5.53531 16.8061 4.07417 15.926 3.02434 14.6433C1.97452 13.3606 1.40063 11.7543 1.4 10.0968V10.0068C2.4 10.5618 3.5175 10.8693 4.66 10.9068C3.13895 9.89116 2.06214 8.33401 1.64878 6.55236C1.23541 4.7707 1.51656 2.89848 2.435 1.31683C4.23799 3.53497 6.48744 5.34901 9.03721 6.64113C11.587 7.93324 14.3801 8.67453 17.235 8.81683C16.8759 7.27694 17.0348 5.66159 17.687 4.22117C18.3393 2.78076 19.4485 1.59573 20.8427 0.849788C22.2369 0.103841 23.8382 -0.161363 25.3984 0.0952855C26.9587 0.351934 28.3907 1.1161 29.4725 2.26933C31.0806 1.9521 32.6227 1.36281 34.0325 0.526829C33.4965 2.18865 32.3753 3.59936 30.8775 4.49683C32.3006 4.32913 33.6903 3.9482 35 3.36683C34.0366 4.81007 32.8235 6.06981 31.4175 7.08683Z" fill="#1D9BF0"/>
</svg>
