<svg width="35" height="35" viewBox="0 0 35 35" fill="none" xmlns="http://www.w3.org/2000/svg">
<path d="M27.2341 34.9815L7.79991 35C3.52439 35.0039 0.0233243 31.5096 0.0184658 27.2341L3.2395e-06 7.79991C-0.0038836 3.52439 3.49038 0.0233243 7.7659 0.0184658L27.2001 3.2395e-06C31.4756 -0.0038836 34.9767 3.49038 34.9815 7.7659L35 27.2001C35.0049 31.4766 31.5096 34.9776 27.2341 34.9815Z" fill="url(#paint0_radial_81_4924)"/>
<path d="M27.2341 34.9815L7.79991 35C3.52439 35.0039 0.0233243 31.5096 0.0184658 27.2341L3.2395e-06 7.79991C-0.0038836 3.52439 3.49038 0.0233243 7.7659 0.0184658L27.2001 3.2395e-06C31.4756 -0.0038836 34.9767 3.49038 34.9815 7.7659L35 27.2001C35.0049 31.4766 31.5096 34.9776 27.2341 34.9815Z" fill="url(#paint1_radial_81_4924)"/>
<path d="M17.5002 24.3024C13.7504 24.3024 10.6982 21.2512 10.6982 17.5005C10.6982 13.7497 13.7504 10.6985 17.5002 10.6985C21.25 10.6985 24.3022 13.7497 24.3022 17.5005C24.3022 21.2512 21.25 24.3024 17.5002 24.3024ZM17.5002 12.6419C14.8212 12.6419 12.6417 14.8214 12.6417 17.5005C12.6417 20.1795 14.8212 22.359 17.5002 22.359C20.1792 22.359 22.3588 20.1795 22.3588 17.5005C22.3588 14.8214 20.1792 12.6419 17.5002 12.6419Z" fill="white"/>
<path d="M24.7881 11.6703C25.5931 11.6703 26.2457 11.0177 26.2457 10.2127C26.2457 9.4077 25.5931 8.75513 24.7881 8.75513C23.9831 8.75513 23.3306 9.4077 23.3306 10.2127C23.3306 11.0177 23.9831 11.6703 24.7881 11.6703Z" fill="white"/>
<path d="M23.3304 30.1326H11.6699C7.92006 30.1326 4.86792 27.0814 4.86792 23.3306V11.6701C4.86792 7.91933 7.92006 4.86816 11.6699 4.86816H23.3304C27.0802 4.86816 30.1324 7.91933 30.1324 11.6701V23.3306C30.1324 27.0814 27.0802 30.1326 23.3304 30.1326ZM11.6699 6.81158C8.99088 6.81158 6.81134 8.99113 6.81134 11.6701V23.3306C6.81134 26.0096 8.99088 28.1892 11.6699 28.1892H23.3304C26.0094 28.1892 28.1889 26.0096 28.1889 23.3306V11.6701C28.1889 8.99113 26.0094 6.81158 23.3304 6.81158H11.6699Z" fill="white"/>
<defs>
<radialGradient id="paint0_radial_81_4924" cx="0" cy="0" r="1" gradientUnits="userSpaceOnUse" gradientTransform="translate(13.0112 35.0253) scale(43.6288 43.6288)">
<stop stop-color="#FFDD55"/>
<stop offset="0.328" stop-color="#FF543F"/>
<stop offset="0.348" stop-color="#FC5245"/>
<stop offset="0.504" stop-color="#E64771"/>
<stop offset="0.643" stop-color="#D53E91"/>
<stop offset="0.761" stop-color="#CC39A4"/>
<stop offset="0.841" stop-color="#C837AB"/>
</radialGradient>
<radialGradient id="paint1_radial_81_4924" cx="0" cy="0" r="1" gradientUnits="userSpaceOnUse" gradientTransform="translate(5.63203 -0.436972) scale(28.9696 19.3024)">
<stop stop-color="#4168C9"/>
<stop offset="0.999" stop-color="#4168C9" stop-opacity="0"/>
</radialGradient>
</defs>
</svg>
